<?xml version="1.0" encoding="UTF-8" standalone="no"?>
<!-- Created with Inkscape (http://www.inkscape.org/) -->
<svg
   xmlns:dc="http://purl.org/dc/elements/1.1/"
   xmlns:cc="http://web.resource.org/cc/"
   xmlns:rdf="http://www.w3.org/1999/02/22-rdf-syntax-ns#"
   xmlns:svg="http://www.w3.org/2000/svg"
   xmlns="http://www.w3.org/2000/svg"
   xmlns:xlink="http://www.w3.org/1999/xlink"
   xmlns:sodipodi="http://sodipodi.sourceforge.net/DTD/sodipodi-0.dtd"
   xmlns:inkscape="http://www.inkscape.org/namespaces/inkscape"
   width="990"
   height="765"
   id="svg2"
   sodipodi:version="0.32"
   inkscape:version="0.45pre1"
   version="1.0"
   sodipodi:docname="sailboat.svg.dxf"
   inkscape:output_extension="org.ekips.output.dxf_outlines"
   sodipodi:docbase="C:\cutting files"
   inkscape:dataloss="true">
  <defs
     id="defs4" />
  <sodipodi:namedview
     id="base"
     pagecolor="#ffffff"
     bordercolor="#666666"
     borderopacity="1.0"
     gridtolerance="10000"
     guidetolerance="10"
     objecttolerance="10"
     inkscape:pageopacity="0.0"
     inkscape:pageshadow="2"
     inkscape:zoom="0.66928105"
     inkscape:cx="495"
     inkscape:cy="382.5"
     inkscape:document-units="px"
     inkscape:current-layer="layer1"
     width="990px"
     height="765px"
     showguides="true"
     inkscape:guide-bbox="true"
     inkscape:window-width="1280"
     inkscape:window-height="708"
     inkscape:window-x="0"
     inkscape:window-y="26" />
  <metadata
     id="metadata7">
    <rdf:RDF>
      <cc:Work
         rdf:about="">
        <dc:format>image/svg+xml</dc:format>
        <dc:type
           rdf:resource="http://purl.org/dc/dcmitype/StillImage" />
      </cc:Work>
    </rdf:RDF>
  </metadata>
  <g
     inkscape:label="Layer 1"
     inkscape:groupmode="layer"
     id="layer1">
    <image
       y="-24.078205"
       x="1626.3107"
       id="image2248"
       height="716.23444"
       width="947.57263"
       sodipodi:absref="C:\Documents and Settings\russj\Desktop\2321491905_db693eae27.JPG"
       xlink:href="C:\Documents and Settings\russj\Desktop\2321491905_db693eae27.JPG" />
    <path
       style="fill:#241c1c;fill-rule:evenodd;stroke:#000000;stroke-width:1.16546619px;stroke-linecap:butt;stroke-linejoin:miter;stroke-opacity:1"
       d="M 655.10604,290.91194 C 661.08104,298.72449 671.3295,312.70884 688.36736,336.43501 C 705.40523,360.1612 709.57769,365.17254 723.14684,384.63945 C 727.38936,390.72594 733.03621,401.23883 739.14762,416.4773 C 745.25903,431.71578 744.74289,432.45969 747.59248,445.59335 C 750.44207,458.727 754.23641,476.01387 750.546,469.01195 C 750.546,469.01195 737.22847,442.66481 721.51713,413.93457 C 721.51713,413.93456 692.76276,365.74515 687.70066,354.09087 C 683.21314,343.75945 675.11168,331.87877 666.44036,317.275 C 663.68492,312.63443 657.25536,302.26115 654.44065,298.22915 C 653.73106,297.21269 654.47529,290.08719 655.10604,290.91194 z M 655.45575,284.02225 C 654.68775,282.7986 655.96923,236.97102 655.36228,211.99455 C 654.60952,180.59033 653.84082,160.61597 655.89311,164.97573 C 671.22358,197.54289 696.99051,266.37493 714.12611,309.97008 C 727.58218,344.20404 773.32737,443.97608 772.66552,444.6703 C 771.64663,445.73903 768.01445,441.88495 756.72984,424.98404 C 745.44524,408.08314 742.35794,401.10033 725.9618,377.36938 C 709.56565,353.63845 708.6611,352.86197 691.14528,330.06028 C 673.62944,307.2586 657.74334,287.66702 655.45575,284.02225 z M 805.2385,535.72424 C 800.43654,537.07261 794.27704,539.8576 784.11278,542.93336 C 783.12269,543.23297 778.76422,528.76204 771.66773,512.45642 C 764.57124,496.15078 755.72683,477.71086 755.72683,477.71086 C 753.35091,472.53216 767.88961,476.8466 773.00113,479.22186 C 778.97498,481.99783 794.47273,496.67307 799.81598,507.12464 C 803.05027,513.45103 802.89148,514.23812 802.18774,518.32977 C 801.48401,522.42141 797.9883,523.03446 798.40978,527.42629 C 799.01594,533.74243 806.66354,535.32409 805.2385,535.72424 z M 815.88299,532.45247 C 814.99939,532.46179 818.77483,526.33746 814.41056,520.15623 C 811.46081,515.97842 808.64458,515.95133 807.81765,513.7815 C 803.22593,501.73291 800.74597,494.31431 796.48376,486.49192 C 788.2416,471.36521 785.76986,465.25925 778.6407,449.56613 C 758.94939,406.22057 731.48138,346.62208 717.73208,311.12201 C 686.85205,231.3912 655.13586,154.76574 655.08535,152.94843 C 654.77239,141.69101 656.92682,121.12615 652.62835,120.48368 C 648.63923,119.88744 649.63254,129.7166 648.92793,164.6071 C 648.92793,164.6071 651.33203,240.48042 650.25959,264.47979 C 650.16067,266.73306 644.256,263.88707 644.34206,264.90785 C 644.82855,270.67721 643.217,284.32228 643.217,292.47219 C 643.217,294.15582 648.15606,295.67019 647.8839,297.32711 C 646.90656,303.27739 647.84867,309.14097 647.44116,316.22299 C 646.57967,331.19553 647.52173,342.09983 646.03196,341.91441 C 643.90596,341.64981 641.46461,330.63553 637.5871,319.1731 C 631.96866,302.56422 626.43016,275.80609 623.43826,275.51692 C 619.25181,275.11229 619.94098,325.45045 616.39915,366.97408 C 613.69143,399.0459 614.39007,421.21107 610.25243,460.13347 C 605.86184,501.43535 594.04022,528.29924 590.55124,547.06418 C 590.44877,547.61527 586.42379,546.46761 584.25723,545.99399 C 582.09664,545.52168 581.96819,549.0629 582.99184,549.23647 C 599.04133,551.95766 623.79824,554.72971 637.5871,556.54234 C 639.29247,556.76652 638.83675,570.06162 638.69393,570.0797 C 633.20867,570.77409 626.47197,572.09138 600.89086,577.49804 C 583.44781,581.18469 577.84344,581.81744 567.13922,581.43245 C 556.43499,581.04745 550.9628,578.23495 550.99027,577.24232 C 551.57827,556.00168 552.45332,539.88925 553.87931,490.14485 C 555.30531,440.40045 556.39438,419.88487 556.69426,378.26471 C 556.97553,339.22731 558.3911,331.65061 558.32483,323.29328 C 558.29964,320.44179 564.76285,314.93244 564.2389,311.84232 C 564.18356,311.51595 558.98949,312.45192 558.98894,311.7139 C 558.97834,297.26851 560.20818,278.65671 559.59024,231.86075 C 559.59024,231.86075 559.64135,141.17889 559.88654,120.19047 C 559.8981,119.20147 565.91261,119.34135 569.80601,120.91175 C 576.81099,123.73722 579.73604,136.24898 582.32427,135.5126 C 585.53489,134.59914 579.30909,122.45731 580.4758,119.04612 C 581.64253,115.63492 583.69178,116.61297 586.32707,114.92594 C 589.54511,112.86585 592.54179,111.25872 590.69158,107.59516 C 588.73473,103.72042 587.41277,101.61473 582.68945,97.703195 C 577.96613,93.791659 574.23216,96.485619 570.69147,93.447304 C 565.40016,88.906741 559.24137,79.894995 559.45075,77.844544 C 559.81508,74.276906 559.71248,67.905751 557.80455,68.005733 C 554.9131,68.157254 555.06103,97.468685 555.73125,145.44373 C 556.41016,194.04232 555.85066,217.64584 554.32204,259.18951 C 553.20365,289.58445 555.09151,295.67607 553.49936,311.61401 C 553.46722,311.93583 547.42912,311.16382 547.35266,311.72817 C 547.12853,313.38248 550.56157,317.34594 552.83527,322.69761 C 553.38325,323.98737 553.38902,348.78108 551.50709,348.89545 C 549.77306,349.00084 544.82288,331.13404 537.87853,310.97189 C 530.93417,290.80975 528.21907,271.04236 523.72968,268.24686 C 521.29929,266.73348 523.95192,275.72285 523.72968,295.50063 C 523.50745,315.27842 525.19273,315.29633 522.84075,347.35801 C 520.48879,379.41968 518.80352,388.96388 514.32182,423.74736 C 509.84011,458.53083 510.54386,455.11963 504.91395,486.49192 C 499.28405,517.86419 499.9265,521.41778 491.8022,549.23647 C 491.68476,549.63863 488.13949,547.80516 485.46856,548.44858 C 482.79763,549.092 481.00103,552.21231 484.28331,552.88941 C 497.53038,555.62214 529.91972,559.77623 543.50843,561.98594 C 545.09384,562.24374 544.04599,574.62793 543.80474,574.48471 C 537.89764,570.97754 527.6315,566.84305 524.92188,566.10277 C 522.69064,565.49319 524.96006,594.11939 523.73141,594.06945 C 509.9606,593.50967 489.52161,594.19605 477.5052,593.30002 C 474.79043,593.09758 472.56052,588.77749 466.24539,585.80164 C 459.93027,582.82581 452.23191,581.6751 452.24471,581.39663 C 452.5701,574.31712 452.72621,569.92749 453.20771,528.32162 C 453.68922,486.71574 453.70775,453.75874 454.17072,402.83251 C 454.63372,351.90627 454.24662,326.69318 455.05966,325.15179 C 458.28516,319.03675 458.73088,318.14062 460.022,316.34428 C 460.81616,315.23935 455.2588,316.21964 455.35858,315.70216 C 455.93312,312.72272 455.12975,312.03303 455.29578,290.39224 C 455.4618,268.75143 455.57993,262.67387 456.4654,228.71087 C 457.35087,194.74788 458.83762,154.54026 458.83762,154.54026 C 458.83762,154.54026 458.20848,136.09371 459.02637,127.67824 C 459.15211,126.38445 462.23696,125.11631 465.43054,124.52888 C 469.76463,123.73167 475.39205,125.43706 477.65336,130.00829 C 479.30935,133.35586 481.66174,134.3561 486.09821,135.61599 C 487.61978,136.04809 489.06049,132.70922 491.02212,128.9258 C 492.53435,126.00913 494.35745,117.97957 492.56357,114.6756 C 491.25648,112.2682 486.78845,111.5426 483.17954,110.29146 C 481.33693,109.65266 476.9031,109.54173 474.86224,108.18534 C 469.02769,104.30758 465.9844,102.10429 459.36326,94.574172 C 458.47707,93.566328 460.2611,87.211263 457.71604,87.147555 C 454.82354,87.075161 455.05705,140.69318 454.17072,169.11619 C 453.28441,197.53921 452.42288,219.06925 451.51435,249.14393 C 450.60581,279.21861 450.8917,272.76736 450.53659,289.41493 C 450.18146,306.0625 450.02752,315.30682 450.09385,315.7342 C 450.15105,316.10278 445.79162,315.52482 445.90281,316.37631 C 446.26091,319.1182 450.4327,324.01196 450.5331,325.03764 C 450.86582,328.43631 450.51438,332.98288 450.53311,333.83464 C 450.67111,340.11112 451.35577,352.58672 447.57782,350.0798 C 443.79985,347.57289 441.67012,336.42606 433.42897,318.24195 C 425.18783,300.05784 417.34309,278.34242 414.61324,277.34339 C 412.771,276.66919 413.22429,279.39368 412.7613,302.80651 C 412.29831,326.21933 412.89961,331.23483 412.7613,370.99466 C 412.62274,410.39185 409.24347,413.30868 403.35343,460.13347 C 397.46338,506.95826 391.9488,537.85584 389.20112,558.29383 C 389.1591,558.60639 382.68653,558.25225 379.8708,558.29383 C 374.06845,558.3795 374.24695,562.59086 377.05585,562.88126 C 393.53632,564.58514 426.74925,565.99142 443.79985,567.42952 C 445.35895,567.56103 444.80976,577.99999 443.94627,577.96194 C 437.81827,577.69189 426.31384,578.91606 419.57644,577.70788 C 418.26272,577.4723 419.88582,592.88058 418.3258,592.85851 C 401.36706,592.6122 374.67702,590.89228 351.4921,590.95874 C 350.77252,590.96083 351.89605,576.33468 351.4921,559.73139 C 350.47921,517.02652 351.14544,479.55354 351.6472,420.09442 C 352.14896,360.63529 351.60792,342.24527 352.17095,322.10893 C 352.18821,321.49156 357.41496,322.36772 357.43567,321.2136 C 357.596,312.28131 357.98095,269.19163 358.39868,262.99577 C 358.41267,262.7883 354.73849,263.02182 354.76105,262.76745 C 355.28401,256.87381 354.75455,262.79592 355.12625,236.87626 C 355.55271,206.89052 355.37123,171.28012 356.69056,142.60779 C 357.22608,130.96942 355.83226,123.13717 357.9438,122.34261 C 362.55062,120.60907 367.88179,121.68763 374.16682,124.52888 C 381.57222,127.87663 389.38661,130.35625 392.60261,128.78476 C 394.57002,127.8234 387.87119,122.49649 386.46371,117.25882 C 385.05624,112.02116 383.83396,110.65131 384.5377,106.33582 C 385.24143,102.02035 390.68614,101.58163 389.27866,99.996907 C 387.87119,98.41218 386.07056,99.155488 378.90779,99.996907 C 376.81722,100.24249 373.98901,100.6568 370.46293,96.343971 C 365.68857,90.504338 361.83672,82.80491 358.6053,77.608681 C 356.35334,73.98747 355.98032,71.535417 352.53613,69.054386 C 351.84852,68.559065 352.97973,73.099797 352.53613,89.969238 C 352.09253,106.83868 352.05488,115.91911 350.76174,136.53215 C 349.09328,163.12769 343.27728,189.87136 338.0169,232.61282 C 332.75652,275.35429 331.13393,308.10952 329.49883,306.85591 C 327.43007,305.26981 318.88634,272.5892 311.20078,250.94913 C 303.51522,229.30907 300.45778,226.23847 298.97795,220.93775 C 298.69029,219.90731 296.30544,226.13436 296.74955,228.06876 C 297.0806,229.51071 300.08218,232.60074 301.494,239.22342 C 302.00896,241.63911 300.92857,250.71383 298.01494,269.14219 C 293.9082,295.11696 290.27383,312.33279 282.97718,348.25334 C 275.68053,384.17388 281.53266,363.25902 268.82833,412.82436 C 256.12401,462.38969 240.39601,513.0129 229.96847,547.72547 C 229.73008,548.51909 220.57637,545.84699 214.30715,545.61935 C 209.55422,545.44677 210.14565,548.57878 213.34414,549.23647 C 243.09949,555.35488 341.27632,571.08246 341.27632,571.08246 C 341.27632,571.08246 343.82564,601.59243 341.27632,601.48276 C 335.39555,601.22975 327.41449,600.69403 318.68263,600.19852 C 317.93354,600.15601 319.47954,593.64358 318.15888,593.3957 C 309.68461,591.80508 300.47529,587.71308 288.16435,584.65227 C 283.24656,583.4296 273.87632,583.79611 263.95483,583.79611 C 246.50693,583.79611 229.92799,584.07333 218.81547,583.79611 C 216.91152,583.74862 219.27094,590.55974 217.48729,590.67391 C 209.30285,591.19772 194.78377,590.86697 184.23161,591.10198 C 182.367,591.14352 181.77662,596.01286 184.23161,599.26737 C 198.26866,617.876 239.2477,640.92752 261.34649,645.21559 C 334.63017,659.43562 353.76286,650.0744 441.94791,649.29828 C 538.97349,648.44436 647.39892,639.4101 707.22361,627.25979 C 708.87992,626.92246 709.40481,621.25427 711.06609,619.90076 C 717.22944,614.87924 748.09907,600.81025 768.00194,585.91077 C 795.27211,565.49608 801.98623,556.02172 817.0817,540.17239 C 818.13443,539.0671 823.0351,534.91421 821.89241,532.86988 C 821.41811,532.02135 819.54701,532.41385 815.88299,532.45247 z M 357.12981,82.052021 C 358.70104,81.547967 361.49974,87.318438 362.94404,93.622174 C 364.38835,99.925911 364.17558,101.10711 362.907,107.26697 C 361.63843,113.42681 357.9305,119.16084 357.86972,118.26159 C 357.42452,111.67334 355.32583,82.63076 357.12981,82.052021 z M 560.04077,85.233519 C 560.03247,84.20978 564.2444,91.901334 567.51134,97.628211 C 574.02765,109.05118 559.73381,115.97277 559.73925,115.82882 C 560.08573,106.46741 560.09962,92.488887 560.04077,85.233519 z M 459.60224,98.929665 C 460.74691,98.696244 466.4688,107.55179 466.41866,112.39167 C 466.35917,118.13583 459.18958,124.14085 458.94392,123.72823 C 457.96095,122.07731 458.11933,99.232065 459.60224,98.929665 z M 352.16313,154.71261 C 354.03029,155.20958 351.79362,171.16775 351.56965,191.85751 C 351.34567,212.54727 350.6572,218.08537 350.60317,235.75934 C 350.54912,253.43333 350.34688,256.88309 350.46803,262.55342 C 350.46914,262.60357 347.45642,261.88907 347.34896,262.55342 C 346.91584,265.23116 347.06476,268.04636 346.90623,275.51692 C 346.6397,288.07598 346.90623,295.06192 346.90623,312.79837 C 346.90623,330.5348 348.81193,347.75728 345.7994,346.0346 C 340.06793,342.75714 331.54921,317.47835 332.01661,314.51739 C 335.36943,293.27744 335.85805,273.36287 340.98001,232.89933 C 346.34869,190.27265 350.74281,154.33457 352.16313,154.71261 z M 653.8868,305.05182 C 661.25526,316.7299 667.92806,324.18816 679.95954,351.33327 C 689.375,372.57614 692.99722,378.25577 704.10887,410.24582 C 715.22053,442.23587 717.85454,457.27116 724.40616,479.29348 C 726.92756,487.76878 728.83038,498.46487 729.22122,498.63255 C 740.33841,503.40223 760.80925,514.89227 770.70472,528.10673 C 777.50143,537.18309 779.49853,544.01796 778.21493,544.39485 C 767.98258,547.3993 746.89298,551.24168 732.70286,553.1401 C 731.6951,553.27492 730.94353,548.10837 725.88772,531.79549 C 720.83192,515.48263 724.9062,524.04196 712.47965,487.88863 C 700.05312,451.7353 690.9323,425.55592 676.18158,387.18218 C 661.43086,348.80844 660.02533,346.72079 653.47677,334.39367 C 652.67269,332.88005 653.53877,304.50024 653.8868,305.05182 z M 653.29158,344.09901 C 653.33544,342.72843 658.24552,351.46757 663.73653,372.53462 C 669.22754,393.60168 674.50672,423.48494 675.25561,428.36724 C 678.71548,450.92367 678.1076,495.19448 678.1076,495.1945 C 678.09837,525.85945 675.61457,534.85332 675.21857,551.02713 C 675.20138,551.7297 685.50097,550.31918 698.18613,551.02713 C 710.87129,551.73507 718.81653,551.76236 725.95918,553.85888 C 727.40819,554.28419 722.64154,557.24125 718.04069,557.32352 C 710.93954,557.45688 708.3313,556.59229 698.70121,557.3985 C 689.0711,558.20472 689.14856,557.32704 680.84848,558.83606 C 677.90677,559.37088 677.84833,563.47219 668.99605,565.13748 C 660.14376,566.8028 648.15099,566.85582 648.14318,565.997 C 647.9958,549.82701 649.01127,518.93599 649.80992,501.06785 C 651.26932,468.41727 652.74081,361.30542 653.29158,344.09901 z M 811.59561,541.78734 C 811.56313,542.59524 782.90815,569.8723 763.51485,583.47631 C 744.12153,597.08033 724.36878,609.04268 720.318,609.27518 C 716.34908,609.50299 732.54602,597.75329 748.86859,583.31348 C 765.99429,568.16315 785.93371,549.67636 789.15006,548.30533 C 793.36388,546.50912 811.70904,538.96667 811.59561,541.78734 z M 777.59991,551.89787 C 776.7543,554.92028 750.38041,576.32435 732.11111,591.83167 C 719.74134,602.33138 712.49283,607.57363 712.85786,606.66334 C 714.86669,601.65372 719.38762,593.45837 726.92481,582.90078 C 734.46199,572.3432 746.29172,564.87663 760.77831,557.3985 C 771.2927,551.97086 778.43253,548.92188 777.59991,551.89787 z M 686.29927,562.84126 C 695.6164,560.48526 704.09601,560.10977 709.93844,561.81358 C 714.27141,563.0772 709.55102,567.98434 705.36819,571.1899 C 702.00385,573.7682 699.692,575.55631 686.0617,579.80491 C 672.43141,584.05352 660.28147,586.68205 649.51882,588.39838 C 648.47967,588.56409 647.44081,571.8874 648.77978,572.18009 C 652.00202,572.88443 664.64074,569.78228 668.82214,568.93032 C 678.43928,566.97082 680.92071,564.20131 686.29927,562.84126 z M 530.87993,575.76728 C 532.63854,576.02426 543.12389,579.59066 543.03213,581.85551 C 542.70473,589.93633 542.65756,603.8508 541.84862,603.92979 C 533.7006,604.72548 517.1932,605.07974 495.6172,605.3556 C 474.04119,605.63147 466.99095,605.77371 455.54463,605.03328 C 454.22113,604.94767 454.4392,588.53987 454.91498,588.69915 C 459.09601,590.09893 460.29746,589.47949 465.5839,592.23794 C 470.87033,594.99638 474.61907,599.72267 476.06069,599.73295 C 491.82478,599.84517 522.38852,599.46331 529.65937,599.61544 C 531.76859,599.65956 530.04596,575.6454 530.87993,575.76728 z M 615.1786,579.67761 C 625.00956,578.57099 632.31123,577.04859 638.21329,576.68107 C 639.45338,576.60385 639.36497,586.3639 637.84811,586.21798 C 634.96482,585.94064 631.68708,586.02746 628.27414,585.94322 C 627.61926,585.92707 628.54269,593.50921 628.27414,593.56303 C 619.28215,595.36488 614.77002,596.49088 595.66376,598.85329 C 576.5575,601.21569 563.48368,603.21955 551.84912,603.01265 C 550.94256,602.99712 549.42128,581.81721 552.1842,583.43965 C 557.5843,586.61071 564.67402,587.78655 571.72683,587.91463 C 581.8448,588.09033 587.14718,588.02278 598.14073,585.1212 C 607.5648,582.63387 610.69459,580.18235 615.1786,579.67761 z M 427.02125,584.11507 C 429.82242,584.62979 442.65847,584.83665 442.98325,584.83135 C 445.64978,584.78776 445.49033,605.33823 444.24779,605.3556 C 436.62986,605.46209 426.82854,606.13412 403.76086,606.25093 C 380.69318,606.36775 365.27545,606.65606 351.97708,605.82284 C 351.09494,605.76757 350.89548,597.07125 352.46032,597.11524 C 371.46718,597.64954 406.31255,598.91833 425.29085,598.58692 C 427.55008,598.54748 424.77904,583.70307 427.02125,584.11507 z "
       id="path3469"
       sodipodi:nodetypes="csssssssssscsssssssscsssssssscssssssssssssssssssssssssssssssssssssssssssssssssssssssssssssssssssssssscssssssssssssssssssssssssssssssssssssssssssssssssssssssssssssssscssssssssssssssssscsssscssscssscsssssssssscsssssssssssscssssssssssssscssssscssssscssssssscssssssssscsssssssssscsssssss"
       inkscape:export-filename="C:\cutting files\CLIPPER.png"
       inkscape:export-xdpi="90"
       inkscape:export-ydpi="90" />
  </g>
</svg>
